<svg xmlns="http://www.w3.org/2000/svg" width="1024" height="1024" viewBox="0 0 200 200">
<rect x="0" y="0" width="200" height="200" fill="#7c3aed"/>
<path d="M 42 108 C 28 112, 28 126, 42 130" fill="none" stroke="#1b1340" stroke-width="7" stroke-linecap="round"/>
<path d="M 158 108 C 172 112, 172 126, 158 130" fill="none" stroke="#1b1340" stroke-width="7" stroke-linecap="round"/>
<path d="M 40 94 C 34 122, 50 158, 100 160 C 150 158, 166 122, 160 94 Z" fill="#1b1340"/>
<path d="M 68 157 L 62 173 L 73 173 L 77 157 Z" fill="#1b1340"/>
<path d="M 95 160 L 93 175 L 104 175 L 105 160 Z" fill="#1b1340"/>
<path d="M 132 157 L 127 173 L 138 173 L 136 157 Z" fill="#1b1340"/>
<ellipse cx="100" cy="92" rx="64" ry="17" fill="#1b1340"/>
<ellipse cx="100" cy="129" rx="46" ry="39" fill="#7c3aed" opacity="0.035"/>
<ellipse cx="100" cy="129" rx="38" ry="32" fill="#7c3aed" opacity="0.045"/>
<ellipse cx="100" cy="129" rx="30" ry="26" fill="#7c3aed" opacity="0.05"/>
<ellipse cx="100" cy="129" rx="23" ry="20" fill="#7c3aed" opacity="0.06"/>
<ellipse cx="100" cy="129" rx="16" ry="14" fill="#7c3aed" opacity="0.07"/>
<ellipse cx="100" cy="88" rx="52" ry="12" fill="#10b981"/>
<ellipse cx="86" cy="85" rx="18" ry="5" fill="#34d399" opacity="0.85"/>
<circle cx="80" cy="66" r="5" fill="#34d399"/>
<circle cx="112" cy="58" r="7" fill="#10b981"/>
<circle cx="97" cy="48" r="3.5" fill="#6ee7b7"/>
<text x="101.5" y="149.5" text-anchor="middle" font-family="DejaVu Sans" font-size="48" font-weight="700" fill="#06281e">₺</text>
<text x="98.8" y="145.2" text-anchor="middle" font-family="DejaVu Sans" font-size="48" font-weight="700" fill="#6ee7b7">₺</text>
<text x="100" y="147" text-anchor="middle" font-family="DejaVu Sans" font-size="48" font-weight="700" fill="#10b981">₺</text>
</svg>
